<?xml version="1.0" encoding="utf-8"?>
<!-- Generator: Adobe Illustrator 24.3.0, SVG Export Plug-In . SVG Version: 6.00 Build 0)  -->
<svg version="1.1" id="Capa_1" xmlns="http://www.w3.org/2000/svg" xmlns:xlink="http://www.w3.org/1999/xlink" x="0px" y="0px"
	 viewBox="0 0 54.64 42" style="enable-background:new 0 0 54.64 42;" xml:space="preserve">
<style type="text/css">
	.st0{fill:#FFFFFF;}
</style>
<g>
	<g>
		<path class="st0" d="M0.66,41.45v-5.86h1.43v4.87h3.56v1H0.66z"/>
		<path class="st0" d="M7.67,38.47l-1.23-0.19c0.14-0.41,0.38-0.72,0.72-0.92c0.34-0.2,0.84-0.3,1.51-0.3
			c0.61,0,1.06,0.06,1.35,0.18c0.3,0.12,0.5,0.27,0.63,0.46c0.12,0.18,0.18,0.52,0.18,1.01l-0.01,1.32c0,0.38,0.02,0.65,0.07,0.83
			c0.04,0.18,0.12,0.37,0.24,0.57H9.77c-0.04-0.08-0.08-0.19-0.13-0.33C9.62,41.05,9.6,41,9.59,40.98
			c-0.23,0.19-0.48,0.33-0.74,0.42C8.58,41.5,8.3,41.54,8,41.54c-0.53,0-0.94-0.12-1.25-0.36c-0.3-0.24-0.46-0.54-0.46-0.91
			c0-0.24,0.07-0.46,0.21-0.65c0.14-0.19,0.33-0.33,0.58-0.44c0.25-0.1,0.61-0.19,1.08-0.26c0.63-0.1,1.07-0.19,1.32-0.28v-0.11
			c0-0.22-0.06-0.37-0.19-0.47c-0.13-0.09-0.37-0.14-0.73-0.14c-0.24,0-0.43,0.04-0.57,0.12C7.86,38.13,7.75,38.27,7.67,38.47z
			 M9.48,39.39c-0.17,0.05-0.45,0.11-0.83,0.17c-0.38,0.07-0.62,0.13-0.74,0.2c-0.18,0.1-0.27,0.24-0.27,0.4
			c0,0.16,0.07,0.3,0.21,0.41c0.14,0.12,0.32,0.17,0.54,0.17c0.24,0,0.48-0.07,0.7-0.2c0.16-0.1,0.27-0.23,0.32-0.37
			c0.04-0.1,0.05-0.28,0.05-0.55V39.39z"/>
		<path class="st0" d="M14.9,41.45v-5.91h2.14l1.29,4.03l1.27-4.03h2.15v5.91h-1.33V36.8L19,41.45h-1.38l-1.4-4.65v4.65H14.9z"/>
		<path class="st0" d="M22.83,39.25c0-0.38,0.11-0.74,0.33-1.09c0.22-0.35,0.54-0.62,0.94-0.81c0.41-0.19,0.86-0.28,1.36-0.28
			c0.78,0,1.41,0.21,1.91,0.63c0.5,0.42,0.74,0.95,0.74,1.59c0,0.65-0.25,1.18-0.75,1.61c-0.5,0.43-1.13,0.64-1.89,0.64
			c-0.47,0-0.92-0.09-1.35-0.27c-0.43-0.18-0.75-0.44-0.97-0.78C22.95,40.16,22.83,39.74,22.83,39.25z M24.23,39.31
			c0,0.42,0.12,0.75,0.36,0.98c0.24,0.23,0.54,0.34,0.89,0.34c0.35,0,0.65-0.11,0.89-0.34c0.24-0.23,0.36-0.55,0.36-0.98
			c0-0.42-0.12-0.74-0.36-0.97c-0.24-0.23-0.54-0.34-0.89-0.34c-0.35,0-0.65,0.11-0.89,0.34C24.35,38.56,24.23,38.88,24.23,39.31z"
			/>
		<path class="st0" d="M33.86,41.45H32.5v-2.19c0-0.46-0.03-0.76-0.09-0.9c-0.06-0.14-0.15-0.24-0.28-0.32
			c-0.13-0.08-0.29-0.11-0.47-0.11c-0.24,0-0.45,0.05-0.63,0.16c-0.19,0.11-0.31,0.25-0.38,0.43c-0.07,0.18-0.1,0.51-0.1,0.98v1.94
			h-1.36v-4.28h1.26v0.63c0.45-0.48,1.01-0.73,1.69-0.73c0.3,0,0.57,0.05,0.82,0.14c0.25,0.09,0.44,0.21,0.56,0.34
			c0.13,0.14,0.22,0.3,0.27,0.48c0.05,0.18,0.07,0.43,0.07,0.76V41.45z"/>
		<path class="st0" d="M39.71,38.43l-1.34,0.2c-0.05-0.22-0.15-0.39-0.31-0.5c-0.16-0.11-0.37-0.17-0.62-0.17
			c-0.34,0-0.61,0.1-0.81,0.29c-0.2,0.19-0.3,0.52-0.3,0.98c0,0.51,0.1,0.87,0.31,1.08c0.2,0.21,0.48,0.31,0.82,0.31
			c0.26,0,0.47-0.06,0.63-0.18c0.16-0.12,0.28-0.33,0.35-0.63L39.78,40c-0.14,0.51-0.4,0.9-0.8,1.16c-0.39,0.26-0.92,0.39-1.58,0.39
			c-0.75,0-1.35-0.2-1.79-0.59c-0.45-0.4-0.67-0.94-0.67-1.64c0-0.71,0.22-1.26,0.67-1.65c0.45-0.39,1.05-0.59,1.82-0.59
			c0.62,0,1.12,0.11,1.49,0.34C39.29,37.63,39.55,37.97,39.71,38.43z"/>
		<path class="st0" d="M40.74,41.45v-5.91h1.36v5.91H40.74z"/>
		<path class="st0" d="M43.18,39.25c0-0.38,0.11-0.74,0.33-1.09c0.22-0.35,0.54-0.62,0.94-0.81c0.41-0.19,0.86-0.28,1.36-0.28
			c0.78,0,1.41,0.21,1.91,0.63c0.5,0.42,0.74,0.95,0.74,1.59c0,0.65-0.25,1.18-0.75,1.61c-0.5,0.43-1.13,0.64-1.89,0.64
			c-0.47,0-0.92-0.09-1.35-0.27c-0.43-0.18-0.75-0.44-0.97-0.78C43.29,40.16,43.18,39.74,43.18,39.25z M44.57,39.31
			c0,0.42,0.12,0.75,0.36,0.98c0.24,0.23,0.54,0.34,0.89,0.34c0.35,0,0.65-0.11,0.89-0.34c0.24-0.23,0.36-0.55,0.36-0.98
			c0-0.42-0.12-0.74-0.36-0.97c-0.24-0.23-0.54-0.34-0.89-0.34c-0.35,0-0.65,0.11-0.89,0.34C44.69,38.56,44.57,38.88,44.57,39.31z"
			/>
		<path class="st0" d="M50.55,38.47l-1.23-0.19c0.14-0.41,0.38-0.72,0.72-0.92c0.34-0.2,0.84-0.3,1.51-0.3
			c0.61,0,1.06,0.06,1.35,0.18c0.3,0.12,0.5,0.27,0.63,0.46c0.12,0.18,0.18,0.52,0.18,1.01l-0.01,1.32c0,0.38,0.02,0.65,0.07,0.83
			c0.04,0.18,0.12,0.37,0.24,0.57h-1.34c-0.04-0.08-0.08-0.19-0.13-0.33c-0.02-0.07-0.04-0.11-0.05-0.13
			c-0.23,0.19-0.48,0.33-0.74,0.42c-0.26,0.09-0.55,0.14-0.85,0.14c-0.53,0-0.94-0.12-1.25-0.36c-0.3-0.24-0.46-0.54-0.46-0.91
			c0-0.24,0.07-0.46,0.21-0.65c0.14-0.19,0.33-0.33,0.58-0.44c0.25-0.1,0.61-0.19,1.08-0.26c0.63-0.1,1.07-0.19,1.32-0.28v-0.11
			c0-0.22-0.06-0.37-0.19-0.47c-0.13-0.09-0.37-0.14-0.73-0.14c-0.24,0-0.43,0.04-0.57,0.12C50.74,38.13,50.63,38.27,50.55,38.47z
			 M52.37,39.39c-0.17,0.05-0.45,0.11-0.83,0.17c-0.38,0.07-0.62,0.13-0.74,0.2c-0.18,0.1-0.27,0.24-0.27,0.4
			c0,0.16,0.07,0.3,0.21,0.41c0.14,0.12,0.32,0.17,0.54,0.17c0.24,0,0.48-0.07,0.7-0.2c0.16-0.1,0.27-0.23,0.32-0.37
			c0.04-0.1,0.05-0.28,0.05-0.55V39.39z"/>
	</g>
	<polygon class="st0" points="9.51,1.5 9.06,0.54 45.63,0.54 45.19,1.5 	"/>
	<rect x="15.47" y="27.85" class="st0" width="23.95" height="0.98"/>
	<rect x="10.08" y="14.45" class="st0" width="34.7" height="0.52"/>
	<rect x="13.38" y="29.33" class="st0" width="28.11" height="0.98"/>
	<rect x="11.28" y="30.8" class="st0" width="32.31" height="1"/>
	<path class="st0" d="M37.35,15.37v0.38h-0.21v11.09h0.21v0.43h-1.88v-0.43h0.21V15.75h-0.21v-0.38h-2.64v0.38h-0.21v11.09h0.21
		v0.43h-1.88v-0.43h0.21V15.75h-0.21v-0.38h-6.62v0.38h-0.21v11.09h0.21v0.43h-1.88v-0.43h0.21V15.75h-0.21v-0.38h-2.64v0.38H19.6
		v11.09h0.21v0.43h-1.88v-0.43h0.21V15.75h-0.21v-0.38h-7.18v11.9h14.32v-9.41h5.09v9.41h13.99v-11.9H37.35z M16.7,24.31h-3.67
		v-6.47h3.67V24.31z M42.22,24.23h-3.67v-6.47h3.67V24.23z"/>
	<g>
		<path class="st0" d="M10.76,2.11v11.9h7.62v-2.08h1.75v2.08h0.68v-2.08h0.38v2.08h0.67v-2.08h0.38v2.08h0.67v-2.08h0.38v2.08h0.67
			v-2.08h0.38v2.08h0.67v-2.08h0.38v2.08h0.91v-2.08h2.37v2.08h0.84v-2.08h0.38v2.08h0.67v-2.08h0.38v2.08h0.67v-2.08h0.38v2.08
			h0.67v-2.08h0.38v2.08h0.67v-2.08h0.38v2.08h0.91v-2.08h1.71v2.08h7.5V2.11H10.76z M26.07,4.35h2.95v6.27h-2.95V4.35z
			 M16.42,10.69h-2.95V4.42h2.95V10.69z M37.1,11.69H17.94v-0.37h1.99v-3.8c0-0.42,0.29-1.21,1.4-1.21s1.4,0.79,1.4,1.21v3.8h9.61
			V7.51c0-0.41,0.29-1.2,1.4-1.2c1.11,0,1.4,0.78,1.4,1.2v3.81h1.97V11.69z M41.75,10.62H38.8V4.35h2.95V10.62z"/>
		<path class="st0" d="M22.34,7.52c0-0.08-0.04-0.82-1.01-0.82c-1,0-1.01,0.78-1.01,0.82v3.78h2.02V7.52z"/>
		<path class="st0" d="M34.74,7.51c0-0.08-0.04-0.81-1.01-0.81c-0.97,0-1.01,0.73-1.01,0.81v3.74h2.02V7.51z"/>
	</g>
</g>
</svg>
